<?xml version="1.0" encoding="utf-8"?>
<!-- Generator: Adobe Illustrator 26.0.3, SVG Export Plug-In . SVG Version: 6.00 Build 0)  -->
<svg version="1.1"
	 id="svg8" xmlns:cc="http://creativecommons.org/ns#" xmlns:dc="http://purl.org/dc/elements/1.1/" xmlns:inkscape="http://www.inkscape.org/namespaces/inkscape" xmlns:rdf="http://www.w3.org/1999/02/22-rdf-syntax-ns#" xmlns:sodipodi="http://sodipodi.sourceforge.net/DTD/sodipodi-0.dtd" xmlns:svg="http://www.w3.org/2000/svg"
	 xmlns="http://www.w3.org/2000/svg" xmlns:xlink="http://www.w3.org/1999/xlink" x="0px" y="0px" viewBox="0 0 64 64"
	 style="enable-background:new 0 0 64 64;" xml:space="preserve">
<style type="text/css">
	.st0{fill:#000000;}
</style>
<sodipodi:namedview  bordercolor="#666666" borderlayer="true" borderopacity="1.0" id="base" inkscape:bbox-nodes="true" inkscape:current-layer="layer25" inkscape:cx="-9.0611176" inkscape:cy="9.2135439" inkscape:document-units="px" inkscape:guide-bbox="true" inkscape:measure-end="20,12.498" inkscape:measure-start="18.8975,12.498" inkscape:object-paths="true" inkscape:pageopacity="0" inkscape:pageshadow="2" inkscape:showpageshadow="false" inkscape:snap-bbox="true" inkscape:snap-bbox-edge-midpoints="true" inkscape:snap-bbox-midpoints="true" inkscape:snap-center="true" inkscape:snap-global="true" inkscape:snap-intersection-paths="true" inkscape:snap-midpoints="true" inkscape:snap-object-midpoints="true" inkscape:snap-page="true" inkscape:snap-smooth-nodes="true" inkscape:window-height="1027" inkscape:window-maximized="1" inkscape:window-width="1920" inkscape:window-x="-8" inkscape:window-y="-8" inkscape:zoom="24.357491" pagecolor="#505050" showgrid="false" showguides="true" units="px">
	<sodipodi:guide  id="guide4039" inkscape:locked="false" orientation="1,0" position="10,10"></sodipodi:guide>
	<sodipodi:guide  id="guide3935" inkscape:locked="false" orientation="0,1" position="10,10"></sodipodi:guide>
</sodipodi:namedview>
<path class="st0" d="M5.8,33.8c-0.5,0-0.9-0.2-1.3-0.5C4.1,32.9,4,32.5,4,32c0-2.6,0.4-5,0.9-7.5c0.6-2.3,1.6-4.7,2.8-6.8
	s2.7-4,4.4-5.7s3.6-3.1,5.7-4.4s4.3-2.2,6.8-2.8C27,4.4,29.4,4,32,4c2,0,4,0.1,5.8,0.6s3.9,1,5.6,1.9c1.8,0.8,3.5,1.9,5.1,2.9
	c1.5,1.2,3,2.6,4.4,4V5.8c0-0.5,0.1-0.9,0.5-1.3S54.3,4,54.8,4s0.9,0.1,1.3,0.5c0.4,0.5,0.5,0.8,0.5,1.3c0,2.2,0,4.4,0,6.5
	s0,4.4,0,6.5c0,0.3,0,0.6-0.1,0.9c-0.1,0.2-0.1,0.6-0.2,0.8c-0.1,0.1-0.2,0.5-0.5,0.6c-0.4,0.2-0.6,0.3-0.9,0.3h-14
	c-0.5,0-0.9-0.2-1.3-0.6c-0.3-0.3-0.5-0.8-0.5-1.2s0.2-0.9,0.5-1.2c0.3-0.4,0.8-0.6,1.3-0.6h11.4c-1.2-1.6-2.5-3.2-4-4.4
	s-3.2-2.5-4.8-3.4S40,8.4,38,7.9s-4-0.6-5.9-0.6s-3.7,0.1-5.6,0.6S22.9,9,21.3,9.8c-1.6,0.8-3.3,1.9-4.7,3c-1.5,1.2-2.8,2.6-4,4
	C11,19,9.7,21.2,8.9,23.9S7.5,29.3,7.5,32c0,0.5-0.1,0.9-0.5,1.3C6.6,33.6,6.2,33.8,5.8,33.8z M60,32c0,2.6-0.3,5-0.9,7.5
	c-0.6,2.3-1.6,4.7-2.8,6.7c-1.3,2-2.7,4-4.4,5.7c-1.6,1.8-3.6,3.2-5.7,4.4c-2.1,1.3-4.3,2.2-6.7,2.8C37.1,59.7,34.6,60,32,60
	c-2,0-4-0.2-6-0.6c-2-0.5-3.8-1.1-5.6-1.9c-1.8-0.8-3.5-1.9-5.1-3c-1.5-1.2-3-2.6-4.3-4v7.7c0,0.5-0.2,0.9-0.5,1.3
	C10.2,59.9,9.7,60,9.2,60S8.3,59.8,8,59.5c-0.4-0.3-0.5-0.8-0.5-1.3c0-2.2,0-4.4,0-6.5s0-4.4,0-6.5c0-0.2,0-0.6,0.1-0.9
	c0.1-0.3,0.1-0.6,0.2-0.9C8,43,8.1,42.9,8.3,42.7c0.2-0.1,0.5-0.2,0.9-0.2h14c0.5,0,0.9,0.2,1.2,0.5c0.4,0.3,0.6,0.8,0.6,1.3
	s-0.2,0.9-0.6,1.3c-0.3,0.3-0.8,0.5-1.2,0.5H11.8c1.2,1.6,2.4,3.2,4,4.4c1.5,1.3,3,2.3,4.8,3.4c1.8,0.9,3.6,1.5,5.5,2.1
	s4,0.6,5.9,0.6c1.9,0,3.7-0.2,5.6-0.7c1.9-0.6,3.6-1.1,5.2-2c1.6-0.9,3.3-1.9,4.7-3s2.7-2.6,4-4c1.6-2.2,2.9-4.4,3.7-7.1
	c0.8-2.7,1.3-5.1,1.3-7.9c0-0.5,0.2-0.9,0.5-1.2c0.3-0.4,0.8-0.5,1.3-0.5s0.9,0.2,1.3,0.6C59.9,31.1,60,31.5,60,32z"/>
</svg>
