<?xml version="1.0" encoding="utf-8"?>
<!-- Generator: Adobe Illustrator 26.0.3, SVG Export Plug-In . SVG Version: 6.00 Build 0)  -->
<svg version="1.1"
	 id="svg8" xmlns:cc="http://creativecommons.org/ns#" xmlns:dc="http://purl.org/dc/elements/1.1/" xmlns:inkscape="http://www.inkscape.org/namespaces/inkscape" xmlns:rdf="http://www.w3.org/1999/02/22-rdf-syntax-ns#" xmlns:sodipodi="http://sodipodi.sourceforge.net/DTD/sodipodi-0.dtd" xmlns:svg="http://www.w3.org/2000/svg"
	 xmlns="http://www.w3.org/2000/svg" xmlns:xlink="http://www.w3.org/1999/xlink" x="0px" y="0px" viewBox="0 0 64 64"
	 style="enable-background:new 0 0 64 64;" xml:space="preserve">
<style type="text/css">
	.st0{fill:#006868;}
</style>
<sodipodi:namedview  bordercolor="#666666" borderlayer="true" borderopacity="1.0" id="base" inkscape:bbox-nodes="true" inkscape:current-layer="layer25" inkscape:cx="73.953922" inkscape:cy="61.867245" inkscape:document-units="px" inkscape:guide-bbox="true" inkscape:measure-end="20,12.498" inkscape:measure-start="18.8975,12.498" inkscape:object-paths="true" inkscape:pageopacity="0" inkscape:pageshadow="2" inkscape:showpageshadow="false" inkscape:snap-bbox="true" inkscape:snap-bbox-edge-midpoints="true" inkscape:snap-bbox-midpoints="true" inkscape:snap-center="true" inkscape:snap-global="true" inkscape:snap-intersection-paths="true" inkscape:snap-midpoints="true" inkscape:snap-object-midpoints="true" inkscape:snap-page="true" inkscape:snap-smooth-nodes="true" inkscape:window-height="1027" inkscape:window-maximized="1" inkscape:window-width="1920" inkscape:window-x="-8" inkscape:window-y="-8" inkscape:zoom="7.2039069" pagecolor="#505050" showgrid="false" showguides="true" units="px">
	<sodipodi:guide  id="guide4039" inkscape:locked="false" orientation="1,0" position="64,64"></sodipodi:guide>
	
		<sodipodi:guide  id="guide3935" inkscape:color="rgb(0,0,255)" inkscape:label="" inkscape:locked="false" orientation="0,1" position="64,64">
		</sodipodi:guide>
</sodipodi:namedview>
<g id="layer25" transform="translate(0,108)" inkscape:groupmode="layer" inkscape:label="Content">
	
		<g id="g4217-3-45" transform="matrix(0.50121193,0,0,0.50121193,-6.8260092,-112.83314)" inkscape:export-xdpi="96" inkscape:export-ydpi="96">
		<g id="layer2-9-1-52" inkscape:label="Trace">
			<g id="g4216-4-8">
				<path id="path4176-3-9" inkscape:connector-curvature="0" class="st0" d="M29.8,42c-4.6,0-8.2,3.6-8.2,8.2v23.2v23.2
					c0,4.6,3.6,8.2,8.2,8.2h29.3h23.2c2.2,0,4.4-0.9,6-2.6c0.3-0.3,0.7-0.4,0.9-0.2c4,1.8,8.3,2.8,12.7,2.8l0,0
					c17.3,0,31.4-14.1,31.4-31.4S119.2,42.2,102,42.2l0,0c-7.8,0-15.2,3-20.9,8c-0.4,0.3-0.8,0.3-1.1,0c-5.6-5-13-8-20.9-8l0,0H29.8
					V42z M29.7,51.1c0-0.5,0.4-0.8,0.8-0.8h28.4c8.8,0,16.7,4.9,20.6,12.7c0.3,0.7,1.2,0.7,1.5,0C85,55.2,93,50.2,101.7,50.2
					c12.8,0,23.2,10.4,23.2,23.2l0,0c0,12.8-10.4,23.2-23.2,23.2l0,0c-7.1,0-13.8-3.3-18.2-8.8c-0.6-0.7-1.5-0.3-1.5,0.6v7.4
					c0,0.5-0.4,0.8-0.8,0.8H58.9H30.6c-0.5,0-0.8-0.4-0.8-0.8V73.5C29.7,73.5,29.7,51.1,29.7,51.1z"/>
			</g>
		</g>
	</g>
</g>
</svg>
