<?xml version="1.0" encoding="utf-8"?>
<!-- Generator: Adobe Illustrator 26.0.3, SVG Export Plug-In . SVG Version: 6.00 Build 0)  -->
<svg version="1.1"
	 id="svg8" xmlns:cc="http://creativecommons.org/ns#" xmlns:dc="http://purl.org/dc/elements/1.1/" xmlns:inkscape="http://www.inkscape.org/namespaces/inkscape" xmlns:rdf="http://www.w3.org/1999/02/22-rdf-syntax-ns#" xmlns:sodipodi="http://sodipodi.sourceforge.net/DTD/sodipodi-0.dtd" xmlns:svg="http://www.w3.org/2000/svg"
	 xmlns="http://www.w3.org/2000/svg" xmlns:xlink="http://www.w3.org/1999/xlink" x="0px" y="0px" viewBox="0 0 64 64"
	 style="enable-background:new 0 0 64 64;" xml:space="preserve">
<style type="text/css">
	.st0{fill:none;stroke:#FFFFFF;stroke-width:3;stroke-miterlimit:10;}
	.st1{fill:#FFFFFF;}
</style>
<sodipodi:namedview  bordercolor="#666666" borderlayer="true" borderopacity="1.0" id="base" inkscape:bbox-nodes="true" inkscape:current-layer="layer25" inkscape:cx="85.162903" inkscape:cy="57.782228" inkscape:document-units="px" inkscape:guide-bbox="true" inkscape:measure-end="20,12.498" inkscape:measure-start="18.8975,12.498" inkscape:object-paths="true" inkscape:pageopacity="0" inkscape:pageshadow="2" inkscape:showpageshadow="false" inkscape:snap-bbox="true" inkscape:snap-bbox-edge-midpoints="true" inkscape:snap-bbox-midpoints="true" inkscape:snap-center="true" inkscape:snap-global="true" inkscape:snap-intersection-paths="true" inkscape:snap-midpoints="true" inkscape:snap-object-midpoints="true" inkscape:snap-page="true" inkscape:snap-smooth-nodes="true" inkscape:window-height="1027" inkscape:window-maximized="1" inkscape:window-width="1920" inkscape:window-x="-8" inkscape:window-y="-8" inkscape:zoom="3.6019536" pagecolor="#505050" showgrid="false" showguides="true" units="px">
	<sodipodi:guide  id="guide4039" inkscape:locked="false" orientation="1,0" position="64,64"></sodipodi:guide>
	
		<sodipodi:guide  id="guide3935" inkscape:color="rgb(0,0,255)" inkscape:label="" inkscape:locked="false" orientation="0,1" position="64,64">
		</sodipodi:guide>
</sodipodi:namedview>
<g id="layer25" transform="translate(0,108)" inkscape:groupmode="layer" inkscape:label="Content">
	<circle id="cir" class="st0" cx="32" cy="-76" r="26.5"/>
	<g id="g3871" transform="translate(0,-1.242582)">
		<path id="path3851" inkscape:connector-curvature="0" class="st1" d="M32-91.3c-1.8,0-3.3,1.4-3.3,3.3s1.4,3.3,3.3,3.3
			c1.8,0,3.3-1.4,3.3-3.3C35.3-89.8,33.8-91.3,32-91.3z"/>
		<path id="path3860" inkscape:connector-curvature="0" class="st1" d="M28.7-78v15.3h6.6V-78H28.7z"/>
		<path id="path3853" inkscape:connector-curvature="0" class="st1" d="M32-91.3c-1.8,0-3.3,1.4-3.3,3.3s1.4,3.3,3.3,3.3
			c1.8,0,3.3-1.4,3.3-3.3C35.3-89.8,33.8-91.3,32-91.3z"/>
		<path id="path3862" inkscape:connector-curvature="0" class="st1" d="M32-81.3c-1.8,0-3.3,1.4-3.3,3.3s1.4,3.3,3.3,3.3
			c1.8,0,3.3-1.4,3.3-3.3S33.8-81.3,32-81.3z"/>
		<path id="path3864" inkscape:connector-curvature="0" class="st1" d="M32-66c-1.8,0-3.3,1.4-3.3,3.3c0,1.8,1.4,3.3,3.3,3.3
			c1.8,0,3.3-1.4,3.3-3.3S33.8-66,32-66z"/>
	</g>
</g>
</svg>
