<?xml version="1.0" encoding="utf-8"?>
<!-- Generator: Adobe Illustrator 26.0.3, SVG Export Plug-In . SVG Version: 6.00 Build 0)  -->
<svg version="1.1" id="Ebene_1" xmlns="http://www.w3.org/2000/svg" xmlns:xlink="http://www.w3.org/1999/xlink" x="0px" y="0px"
	 viewBox="0 0 64 64" style="enable-background:new 0 0 64 64;" xml:space="preserve">
<style type="text/css">
	.st0{fill:none;stroke:#FFFFFF;stroke-width:3;stroke-linecap:round;stroke-linejoin:round;}
</style>
<path id="bot" class="st0" d="M57,45.2L34.4,59.5c-1.5,0.8-3.3,0.8-4.8,0L7,45.2"/>
<path id="mid" class="st0" d="M57,35.2L34.4,49.4c-1.5,0.8-3.3,0.8-4.8,0L7,35.2"/>
<path id="top" class="st0" d="M56,25.8L34.4,39.3c-1.5,0.8-3.3,0.8-4.8,0L8,25.8c-3.3-2.1-3.3-5.5,0-7.6L29.6,4.5
	c1.5-0.8,3.3-0.8,4.8,0L56,18.1C59.3,20.2,59.3,23.7,56,25.8z"/>
</svg>
