<?xml version="1.0" encoding="utf-8"?>
<!-- Generator: Adobe Illustrator 26.0.3, SVG Export Plug-In . SVG Version: 6.00 Build 0)  -->
<svg version="1.1" id="Ebene_1" xmlns="http://www.w3.org/2000/svg" xmlns:xlink="http://www.w3.org/1999/xlink" x="0px" y="0px"
	 viewBox="0 0 64 64" style="enable-background:new 0 0 64 64;" xml:space="preserve">
<style type="text/css">
	.st0{fill:none;stroke:#FFFFFF;stroke-width:3;stroke-miterlimit:10;}
</style>
<path class="st0" d="M32.5,6V5.5c-0.2,0-0.3,0-0.5,0c-11.2,0-21.1,7-24.9,17.5h11.2C20.3,13.1,25.9,6,32.5,6z"/>
<path class="st0" d="M17.3,31.5c0-2.8,0.3-5.7,0.9-8.5H7.1C5,28.8,5,35.2,7.1,41h11.4C17.7,37.9,17.3,34.7,17.3,31.5z"/>
<path class="st0" d="M46.8,23H57C53.2,12.7,43.5,5.7,32.5,5.5V6C39.1,6,44.7,13.1,46.8,23z"/>
<path class="st0" d="M18.4,41H7c3.9,10.5,13.8,17.5,25,17.5c0.2,0,0.3,0,0.5,0v-1.4C26.1,57.1,20.6,50.5,18.4,41z"/>
<path class="st0" d="M32.5,57.1v1.4c11-0.2,20.7-7.2,24.4-17.5H46.5C44.3,50.5,38.8,57.1,32.5,57.1z"/>
<path class="st0" d="M56.9,23H46.8c0.6,2.8,0.9,5.7,0.9,8.5c0,3.2-0.4,6.3-1,9.5H57C59.1,35.2,59.1,28.8,56.9,23z"/>
<path class="st0" d="M32.5,23H18.2C17,29,17,35.1,18.4,41h14.1V23z"/>
<path class="st0" d="M18.4,41c2.3,9.5,7.7,16.1,14.1,16.1V41H18.4z"/>
<path class="st0" d="M32.5,6c-6.6,0-12.2,7.1-14.3,17h14.3V6z"/>
<path class="st0" d="M32.5,57.1c6.3,0,11.8-6.6,14.1-16.1H32.5V57.1z"/>
<path class="st0" d="M32.5,6v17h14.3C44.7,13.1,39.1,6,32.5,6z"/>
<path class="st0" d="M32.5,41h14.1c0.8-3.1,1-6.2,1-9.5c0-2.8-0.3-5.7-0.9-8.5H32.5V41z"/>
</svg>
