<?xml version="1.0" encoding="utf-8"?>
<!-- Generator: Adobe Illustrator 26.0.3, SVG Export Plug-In . SVG Version: 6.00 Build 0)  -->
<svg version="1.1"
	 id="svg8" xmlns:cc="http://creativecommons.org/ns#" xmlns:dc="http://purl.org/dc/elements/1.1/" xmlns:inkscape="http://www.inkscape.org/namespaces/inkscape" xmlns:rdf="http://www.w3.org/1999/02/22-rdf-syntax-ns#" xmlns:sodipodi="http://sodipodi.sourceforge.net/DTD/sodipodi-0.dtd" xmlns:svg="http://www.w3.org/2000/svg"
	 xmlns="http://www.w3.org/2000/svg" xmlns:xlink="http://www.w3.org/1999/xlink" x="0px" y="0px" viewBox="0 0 64 64"
	 style="enable-background:new 0 0 64 64;" xml:space="preserve">
<style type="text/css">
	.st0{fill:none;stroke:#FFFFFF;stroke-width:3;stroke-miterlimit:10;}
	.st1{fill:#FFFFFF;}
</style>
<sodipodi:namedview  bordercolor="#666666" borderlayer="true" borderopacity="1.0" id="base" inkscape:bbox-nodes="true" inkscape:current-layer="layer25" inkscape:cx="29.143293" inkscape:cy="24.756816" inkscape:document-units="px" inkscape:guide-bbox="true" inkscape:measure-end="20,12.498" inkscape:measure-start="18.8975,12.498" inkscape:object-paths="true" inkscape:pageopacity="0" inkscape:pageshadow="2" inkscape:showpageshadow="false" inkscape:snap-bbox="true" inkscape:snap-bbox-edge-midpoints="true" inkscape:snap-bbox-midpoints="true" inkscape:snap-center="true" inkscape:snap-global="true" inkscape:snap-intersection-paths="true" inkscape:snap-midpoints="true" inkscape:snap-object-midpoints="true" inkscape:snap-page="true" inkscape:snap-smooth-nodes="true" inkscape:window-height="1027" inkscape:window-maximized="1" inkscape:window-width="1920" inkscape:window-x="-8" inkscape:window-y="-8" inkscape:zoom="2.7490221" pagecolor="#505050" showgrid="false" showguides="false" units="px">
	<sodipodi:guide  id="guide4039" inkscape:locked="false" orientation="1,0" position="64,64"></sodipodi:guide>
	
		<sodipodi:guide  id="guide3935" inkscape:color="rgb(0,0,255)" inkscape:label="" inkscape:locked="false" orientation="0,1" position="64,64">
		</sodipodi:guide>
</sodipodi:namedview>
<path id="tri" inkscape:connector-curvature="0" sodipodi:nodetypes="cccccccc" class="st0" d="M32.2,8.4c-1.1,0-2.4,0.6-3,1.7
	L6,50.5c-1.3,2.2,0.3,5,2.8,5h46.4c2.6,0,4.2-2.8,2.8-5L34.9,10.3C34.5,9.2,33.4,8.5,32.2,8.4z"/>
<g id="layer25" transform="translate(0,108)" inkscape:groupmode="layer" inkscape:label="Content">
	<g id="g3861" transform="matrix(0.55290621,0,0,0.55290621,28.614002,-29.750801)">
	</g>
	<g id="g3871" transform="matrix(-0.83333333,0,0,-0.83333333,117.3255,-70.7681)">
		<path id="path3851" inkscape:connector-curvature="0" class="st1" d="M102.4-15.1c-1.8,0-3.3,1.4-3.3,3.4s1.4,3.4,3.3,3.4
			c1.8,0,3.3-1.4,3.3-3.4S104.2-15.1,102.4-15.1z"/>
		<path id="path3860-8" inkscape:connector-curvature="0" class="st1" d="M99.1-1.5V14h6.6V-1.5H99.1z"/>
		<path id="path3853" inkscape:connector-curvature="0" class="st1" d="M102.4-15.1c-1.8,0-3.3,1.4-3.3,3.4s1.4,3.4,3.3,3.4
			c1.8,0,3.3-1.4,3.3-3.4S104.2-15.1,102.4-15.1z"/>
		<path id="path3862" inkscape:connector-curvature="0" class="st1" d="M102.4-4.9c-1.8,0-3.3,1.4-3.3,3.4c0,1.8,1.4,3.4,3.3,3.4
			c1.8,0,3.3-1.4,3.3-3.4C105.6-3.4,104.2-4.9,102.4-4.9z"/>
		<path id="path3864" inkscape:connector-curvature="0" class="st1" d="M102.4,10.6c-1.8,0-3.3,1.4-3.3,3.4s1.4,3.4,3.3,3.4
			c1.8,0,3.3-1.4,3.3-3.4S104.2,10.6,102.4,10.6z"/>
	</g>
</g>
</svg>
