<?xml version="1.0" encoding="utf-8"?>
<!-- Generator: Adobe Illustrator 26.0.3, SVG Export Plug-In . SVG Version: 6.00 Build 0)  -->
<svg version="1.1"
	 id="svg8" xmlns:cc="http://creativecommons.org/ns#" xmlns:dc="http://purl.org/dc/elements/1.1/" xmlns:inkscape="http://www.inkscape.org/namespaces/inkscape" xmlns:rdf="http://www.w3.org/1999/02/22-rdf-syntax-ns#" xmlns:sodipodi="http://sodipodi.sourceforge.net/DTD/sodipodi-0.dtd" xmlns:svg="http://www.w3.org/2000/svg"
	 xmlns="http://www.w3.org/2000/svg" xmlns:xlink="http://www.w3.org/1999/xlink" x="0px" y="0px" viewBox="0 0 64 64"
	 style="enable-background:new 0 0 64 64;" xml:space="preserve">
<style type="text/css">
	.st0{fill:none;stroke:#FFFFFF;stroke-width:3;stroke-linejoin:round;stroke-miterlimit:100;}
	.st1{fill:none;stroke:#FFFFFF;stroke-width:3;stroke-linejoin:round;stroke-miterlimit:10;}
</style>
<sodipodi:namedview  bordercolor="#666666" borderlayer="true" borderopacity="1.0" id="base" inkscape:bbox-nodes="true" inkscape:bbox-paths="true" inkscape:current-layer="layer25" inkscape:cx="78.127687" inkscape:cy="1.523437" inkscape:document-units="px" inkscape:guide-bbox="true" inkscape:measure-end="64,64" inkscape:measure-start="54,64" inkscape:object-paths="true" inkscape:pageopacity="0" inkscape:pageshadow="2" inkscape:showpageshadow="false" inkscape:snap-bbox="true" inkscape:snap-bbox-edge-midpoints="true" inkscape:snap-bbox-midpoints="true" inkscape:snap-center="true" inkscape:snap-global="true" inkscape:snap-intersection-paths="true" inkscape:snap-midpoints="true" inkscape:snap-object-midpoints="true" inkscape:snap-page="true" inkscape:snap-smooth-nodes="true" inkscape:window-height="1027" inkscape:window-maximized="1" inkscape:window-width="1920" inkscape:window-x="-8" inkscape:window-y="-8" inkscape:zoom="2.668288" pagecolor="#505050" showgrid="false" showguides="true" units="px">
	<sodipodi:guide  id="guide4039" inkscape:locked="false" orientation="1,0" position="64,64"></sodipodi:guide>
	
		<sodipodi:guide  id="guide3935" inkscape:color="rgb(0,0,255)" inkscape:label="" inkscape:locked="false" orientation="0,1" position="64,64">
		</sodipodi:guide>
</sodipodi:namedview>
<path id="path3965" inkscape:connector-curvature="0" class="st0" d="M13.4,58.5c-2.2,2.2-6,2.1-8.1-0.5c-1.6-2.1-1.3-5.3,0.6-7.2
	l16.3-16.1c0,0,0,0,0.1,0l7.5,7.5c0,0,0,0,0,0.1L13.4,58.5z"/>
<path id="rect3969" inkscape:connector-curvature="0" class="st1" d="M56,15.4l-7.3,4.1l-8.2,8.2L36.6,24l8.2-8.2l4.1-7.4l7.3-4.1
	L60,8.1L56,15.4z"/>
<path id="rect3945" inkscape:connector-curvature="0" sodipodi:nodetypes="cccsccccccccccccccc" class="st1" d="M22.2,7.1
	c-3.2-3.2-8-4-12.1-2.1l7.1,7.1c1.4,1.4,1.4,3.6,0,5s-3.6,1.4-5,0L5.1,10c-2,4.1-1.2,8.9,2.1,12.1c2.9,2.9,7.4,3.9,11.3,2.5
	l10.7,10.7L52,58l0,0c0,0,0,0,0.1,0.1c1.8,1.8,4.6,1.8,6.3,0s1.8-4.6,0-6.3c0,0,0,0-0.1-0.1l0,0L35.5,28.9L24.8,18.1
	C26.2,14.4,25.2,10,22.2,7.1z"/>
</svg>
