<?xml version="1.0" encoding="utf-8"?>
<!-- Generator: Adobe Illustrator 26.0.3, SVG Export Plug-In . SVG Version: 6.00 Build 0)  -->
<svg version="1.1"
	 id="svg8" xmlns:cc="http://creativecommons.org/ns#" xmlns:dc="http://purl.org/dc/elements/1.1/" xmlns:inkscape="http://www.inkscape.org/namespaces/inkscape" xmlns:rdf="http://www.w3.org/1999/02/22-rdf-syntax-ns#" xmlns:sodipodi="http://sodipodi.sourceforge.net/DTD/sodipodi-0.dtd" xmlns:svg="http://www.w3.org/2000/svg"
	 xmlns="http://www.w3.org/2000/svg" xmlns:xlink="http://www.w3.org/1999/xlink" x="0px" y="0px" viewBox="0 0 64 64"
	 style="enable-background:new 0 0 64 64;" xml:space="preserve">
<style type="text/css">
	.st0{fill:#FFFFFF;}
</style>
<sodipodi:namedview  bordercolor="#666666" borderlayer="true" borderopacity="1.0" id="base" inkscape:bbox-nodes="true" inkscape:current-layer="layer25" inkscape:cx="-15.564027" inkscape:cy="4.7813622" inkscape:document-units="px" inkscape:guide-bbox="true" inkscape:measure-end="20,12.498" inkscape:measure-start="18.8975,12.498" inkscape:object-paths="true" inkscape:pageopacity="0" inkscape:pageshadow="2" inkscape:showpageshadow="false" inkscape:snap-bbox="true" inkscape:snap-bbox-edge-midpoints="true" inkscape:snap-bbox-midpoints="true" inkscape:snap-center="true" inkscape:snap-global="true" inkscape:snap-intersection-paths="true" inkscape:snap-midpoints="true" inkscape:snap-object-midpoints="true" inkscape:snap-page="true" inkscape:snap-smooth-nodes="true" inkscape:window-height="1027" inkscape:window-maximized="1" inkscape:window-width="1920" inkscape:window-x="-8" inkscape:window-y="-8" inkscape:zoom="17.223347" pagecolor="#505050" showgrid="false" showguides="true" units="px">
	<sodipodi:guide  id="guide4039" inkscape:locked="false" orientation="1,0" position="10,10"></sodipodi:guide>
	<sodipodi:guide  id="guide3935" inkscape:locked="false" orientation="0,1" position="10,10"></sodipodi:guide>
</sodipodi:namedview>
<path class="st0" d="M32,36.5L5.5,63.1C4.8,63.7,4.1,64,3.2,64s-1.7-0.3-2.3-0.9S0,61.7,0,60.8s0.3-1.6,0.9-2.2L27.5,32L0.9,5.5
	C0.3,4.8,0,4.1,0,3.2C0,2.8,0.1,2.3,0.2,2s0.4-0.7,0.7-1s0.6-0.5,1-0.7S2.8,0,3.2,0c0.9,0,1.6,0.3,2.2,0.9L32,27.5L58.5,0.9
	C59.2,0.3,59.9,0,60.8,0c0.4,0,0.8,0.1,1.2,0.2s0.7,0.4,1,0.7s0.5,0.6,0.7,1S64,2.8,64,3.2c0,0.9-0.3,1.7-0.9,2.3L36.5,32L63,58.5
	c0.6,0.6,0.9,1.4,0.9,2.2c0,0.4-0.1,0.9-0.2,1.2s-0.4,0.7-0.7,1s-0.6,0.5-1,0.7s-0.8,0.2-1.2,0.2c-0.9,0-1.7-0.3-2.3-0.9L32,36.5z"
	/>
</svg>
