<?xml version="1.0" encoding="utf-8"?>
<!-- Generator: Adobe Illustrator 26.0.3, SVG Export Plug-In . SVG Version: 6.00 Build 0)  -->
<svg version="1.1" id="Ebene_1" xmlns="http://www.w3.org/2000/svg" xmlns:xlink="http://www.w3.org/1999/xlink" x="0px" y="0px"
	 viewBox="0 0 64 56.9" style="enable-background:new 0 0 64 56.9;" xml:space="preserve">
<style type="text/css">
	.st0{fill:#FFFFFF;stroke:#FFFFFF;stroke-width:3;stroke-miterlimit:10;}
</style>
<path class="st0" d="M1.5,18.2c0-2.2,0.4-4.5,1.2-6.6c0.8-2,2-3.7,3.6-5.2c1.5-1.5,3.3-2.8,5.2-3.7c2-0.9,4.2-1.3,6.4-1.2
	c2.2,0,4.4,0.4,6.4,1.2c2,0.9,3.8,2.1,5.3,3.7l1.1,1.1l1.1,1.1L33,7.5l1.1-1.1c1.6-1.5,3.5-2.7,5.5-3.6c2-0.8,4.1-1.2,6.3-1.2
	c2.2,0.1,4.5,0.5,6.6,1.2c2,0.9,3.7,2.1,5.2,3.7s2.7,3.4,3.6,5.3c0.9,2.1,1.4,4.3,1.4,6.6c0,2.2-0.4,4.4-1.2,6.4
	c-0.9,2-2.1,3.8-3.6,5.5L34.2,54.6c-0.8,1-2.3,1.1-3.3,0.3c-0.1-0.1-0.2-0.2-0.3-0.3L6.4,30.1c-1.6-1.5-2.8-3.4-3.6-5.5
	C1.9,22.6,1.5,20.4,1.5,18.2z"/>
</svg>
