<?xml version="1.0" encoding="utf-8"?>
<!-- Generator: Adobe Illustrator 26.0.3, SVG Export Plug-In . SVG Version: 6.00 Build 0)  -->
<svg version="1.1"
	 id="svg8" sodipodi:docname="shortcut.svg" xmlns:cc="http://creativecommons.org/ns#" xmlns:dc="http://purl.org/dc/elements/1.1/" xmlns:inkscape="http://www.inkscape.org/namespaces/inkscape" xmlns:rdf="http://www.w3.org/1999/02/22-rdf-syntax-ns#" xmlns:sodipodi="http://sodipodi.sourceforge.net/DTD/sodipodi-0.dtd" xmlns:svg="http://www.w3.org/2000/svg"
	 xmlns="http://www.w3.org/2000/svg" xmlns:xlink="http://www.w3.org/1999/xlink" x="0px" y="0px" viewBox="0 0 64 64"
	 style="enable-background:new 0 0 64 64;" xml:space="preserve">
<style type="text/css">
	.st0{fill:#FFFFFF;}
</style>
<sodipodi:namedview  bordercolor="#666666" borderlayer="true" borderopacity="1.0" id="base" inkscape:bbox-nodes="true" inkscape:current-layer="layer25" inkscape:cx="-2.8635478" inkscape:cy="2.7808125" inkscape:document-units="px" inkscape:guide-bbox="true" inkscape:measure-end="20,12.498" inkscape:measure-start="18.8975,12.498" inkscape:object-paths="true" inkscape:pageopacity="0" inkscape:pageshadow="2" inkscape:showpageshadow="false" inkscape:snap-bbox="true" inkscape:snap-bbox-edge-midpoints="true" inkscape:snap-bbox-midpoints="true" inkscape:snap-center="true" inkscape:snap-global="true" inkscape:snap-intersection-paths="true" inkscape:snap-midpoints="true" inkscape:snap-object-midpoints="true" inkscape:snap-page="true" inkscape:snap-smooth-nodes="true" inkscape:window-height="1027" inkscape:window-maximized="1" inkscape:window-width="1920" inkscape:window-x="-8" inkscape:window-y="-8" inkscape:zoom="22.59728" pagecolor="#505050" showgrid="false" showguides="true" units="px">
	<sodipodi:guide  id="guide4039" inkscape:locked="false" orientation="1,0" position="10,10"></sodipodi:guide>
	<sodipodi:guide  id="guide3935" inkscape:locked="false" orientation="0,1" position="10,10"></sodipodi:guide>
</sodipodi:namedview>
<path class="st0" d="M23.9,29.3c-2.3,0.7-4.4,1.5-6.4,2.7s-3.9,2.5-5.5,4.3S8.8,39.9,7.6,42c-1.2,2-2,4.1-2.5,6.4s-1,4.6-1,6.8
	c0,0.5-0.1,1.1-0.5,1.5C3,57.1,2.5,57.4,2,57.4s-1.1-0.3-1.5-0.5C0.1,56.3,0,55.8,0,55.2c0-2.8,0.4-5.6,1.1-8.3s1.9-5.1,3.1-7.5
	C5.5,37.1,7.1,35,9,33.1c1.9-1.9,4-3.5,6.3-4.8s4.8-2.4,7.5-3.1c2.5-0.7,5.3-1.1,8.2-1.1h26.1L43,10.2c-0.4-0.4-0.7-0.9-0.7-1.5
	c0-0.7,0.3-1.1,0.7-1.5s0.9-0.5,1.5-0.5c0.5,0,1.1,0.1,1.5,0.5l17.5,17.5c0.4,0.4,0.5,0.9,0.5,1.5c0,0.7-0.3,1.1-0.5,1.5L45.9,45.3
	C45.5,45.7,45,46,44.4,46c-0.7,0-1.1-0.3-1.5-0.7s-0.7-0.9-0.7-1.5c0-0.5,0.3-1.1,0.7-1.5l14-14h-26C28.5,28.4,26.1,28.6,23.9,29.3z
	"/>
</svg>
