<?xml version="1.0" encoding="utf-8"?>
<!-- Generator: Adobe Illustrator 26.0.3, SVG Export Plug-In . SVG Version: 6.00 Build 0)  -->
<svg version="1.1" id="Ebene_1" xmlns="http://www.w3.org/2000/svg" xmlns:xlink="http://www.w3.org/1999/xlink" x="0px" y="0px"
	 viewBox="0 0 16 16" style="enable-background:new 0 0 16 16;" xml:space="preserve">
<style type="text/css">
	.st0{fill:none;stroke:#000000;stroke-width:0.5;stroke-miterlimit:10;}
	.st1{clip-path:url(#SVGID_00000108275742812728416420000004340316612418951075_);}
	.st2{fill:none;}
</style>
<path class="st0" d="M4.1,0.2h7.8c2.1,0,3.9,1.7,3.9,3.9v7.8c0,2.1-1.7,3.9-3.9,3.9H4.1c-2.1,0-3.9-1.7-3.9-3.9V4.1
	C0.2,2,2,0.2,4.1,0.2z"/>
<g>
	<defs>
		<path id="SVGID_1_" d="M4.1,0.2h7.8c2.1,0,3.9,1.7,3.9,3.9v7.8c0,2.1-1.7,3.9-3.9,3.9H4.1c-2.1,0-3.9-1.7-3.9-3.9V4.1
			C0.2,2,2,0.2,4.1,0.2z"/>
	</defs>
	<clipPath id="SVGID_00000008846283392039443180000017082547553748818082_">
		<use xlink:href="#SVGID_1_"  style="overflow:visible;"/>
	</clipPath>
	<g style="clip-path:url(#SVGID_00000008846283392039443180000017082547553748818082_);">
		<line class="st2" x1="0.2" y1="2.9" x2="2.9" y2="0.2"/>
		<polygon class="st2" points="5.4,15.8 15.8,5.4 15.8,2 2,15.8 		"/>
		<polygon class="st2" points="3.1,0.2 0.2,3.1 0.2,6.5 6.5,0.2 		"/>
		<polygon class="st2" points="9,15.8 15.8,9 15.8,5.6 5.6,15.8 		"/>
		<polygon class="st2" points="15.8,0.2 13.9,0.2 0.2,13.9 0.2,15.8 1.8,15.8 15.8,1.8 		"/>
		<polygon class="st2" points="6.7,0.2 0.2,6.7 0.2,10.1 10.1,0.2 		"/>
		<polygon class="st2" points="12.6,15.8 15.8,12.6 15.8,9.2 9.2,15.8 		"/>
		<polygon class="st2" points="10.3,0.2 0.2,10.3 0.2,13.7 13.7,0.2 		"/>
		<polygon class="st2" points="15.8,15.8 15.8,12.8 12.8,15.8 		"/>
		<polygon points="2.9,0.2 0.2,2.9 0.2,3.1 3.1,0.2 		"/>
		<polygon points="6.5,0.2 0.2,6.5 0.2,6.7 6.7,0.2 		"/>
		<polygon points="10.1,0.2 0.2,10.1 0.2,10.3 10.3,0.2 		"/>
		<polygon points="13.7,0.2 0.2,13.7 0.2,13.9 13.9,0.2 		"/>
		<polygon points="15.8,2 15.8,1.8 1.8,15.8 2,15.8 		"/>
		<polygon points="5.6,15.8 15.8,5.6 15.8,5.4 5.4,15.8 		"/>
		<polygon points="9.2,15.8 15.8,9.2 15.8,9 9,15.8 		"/>
		<polygon points="12.8,15.8 15.8,12.8 15.8,12.6 12.6,15.8 		"/>
	</g>
</g>
</svg>
