<?xml version="1.0" encoding="utf-8"?>
<!-- Generator: Adobe Illustrator 26.0.3, SVG Export Plug-In . SVG Version: 6.00 Build 0)  -->
<svg version="1.1"
	 id="svg8" xmlns:cc="http://creativecommons.org/ns#" xmlns:dc="http://purl.org/dc/elements/1.1/" xmlns:inkscape="http://www.inkscape.org/namespaces/inkscape" xmlns:rdf="http://www.w3.org/1999/02/22-rdf-syntax-ns#" xmlns:sodipodi="http://sodipodi.sourceforge.net/DTD/sodipodi-0.dtd" xmlns:svg="http://www.w3.org/2000/svg"
	 xmlns="http://www.w3.org/2000/svg" xmlns:xlink="http://www.w3.org/1999/xlink" x="0px" y="0px" viewBox="0 0 64 64"
	 style="enable-background:new 0 0 64 64;" xml:space="preserve">
<style type="text/css">
	.st0{fill:#000000;}
</style>
<sodipodi:namedview  bordercolor="#666666" borderlayer="true" borderopacity="1.0" id="base" inkscape:bbox-nodes="true" inkscape:current-layer="layer25" inkscape:cx="-15.757493" inkscape:cy="5.3322583" inkscape:document-units="px" inkscape:guide-bbox="true" inkscape:measure-end="20,12.498" inkscape:measure-start="18.8975,12.498" inkscape:object-paths="true" inkscape:pageopacity="0" inkscape:pageshadow="2" inkscape:showpageshadow="false" inkscape:snap-bbox="true" inkscape:snap-bbox-edge-midpoints="true" inkscape:snap-bbox-midpoints="true" inkscape:snap-center="true" inkscape:snap-global="true" inkscape:snap-intersection-paths="true" inkscape:snap-midpoints="true" inkscape:snap-object-midpoints="true" inkscape:snap-page="true" inkscape:snap-smooth-nodes="true" inkscape:window-height="1027" inkscape:window-maximized="1" inkscape:window-width="1920" inkscape:window-x="-8" inkscape:window-y="-8" inkscape:zoom="24.35749" pagecolor="#505050" showgrid="false" showguides="true" units="px">
	<sodipodi:guide  id="guide4039" inkscape:locked="false" orientation="1,0" position="10,10"></sodipodi:guide>
	<sodipodi:guide  id="guide3935" inkscape:locked="false" orientation="0,1" position="10,10"></sodipodi:guide>
</sodipodi:namedview>
<path class="st0" d="M52,0c0.5,0,1,0.2,1.4,0.6S54,1.5,54,2s-0.2,1-0.6,1.4S52.5,4,52,4H12c-0.5,0-1-0.2-1.4-0.6S10,2.5,10,2
	s0.2-1,0.6-1.4S11.5,0,12,0H52z M52,28c0,0.5-0.2,1-0.6,1.4S50.5,30,50,30c-0.3,0-0.5-0.1-0.8-0.2s-0.4-0.2-0.6-0.4L34,14.8V62
	c0,0.5-0.2,1-0.6,1.4S32.5,64,32,64s-1-0.2-1.4-0.6S30,62.5,30,62V14.8L15.4,29.4C15,29.8,14.5,30,14,30s-1-0.2-1.4-0.6
	S12,28.5,12,28s0.2-1,0.6-1.4L30.5,8.7c0.2-0.2,0.5-0.4,0.7-0.5S31.7,8,32,8s0.6,0.1,0.8,0.2s0.5,0.3,0.7,0.5l17.9,17.9
	C51.8,27,52,27.5,52,28z"/>
</svg>
