<?xml version="1.0" encoding="utf-8"?>
<!-- Generator: Adobe Illustrator 26.0.3, SVG Export Plug-In . SVG Version: 6.00 Build 0)  -->
<svg version="1.1"
	 id="svg8" inkscape:export-filename="D:\Bethesda Game Modding\Mod Organizer 2\stylesheets\Paper\Dark\dots.png" sodipodi:docname="pin.svg" xmlns:cc="http://creativecommons.org/ns#" xmlns:dc="http://purl.org/dc/elements/1.1/" xmlns:inkscape="http://www.inkscape.org/namespaces/inkscape" xmlns:rdf="http://www.w3.org/1999/02/22-rdf-syntax-ns#" xmlns:sodipodi="http://sodipodi.sourceforge.net/DTD/sodipodi-0.dtd" xmlns:svg="http://www.w3.org/2000/svg"
	 xmlns="http://www.w3.org/2000/svg" xmlns:xlink="http://www.w3.org/1999/xlink" x="0px" y="0px" viewBox="0 0 20 20"
	 style="enable-background:new 0 0 20 20;" xml:space="preserve">
<style type="text/css">
	.st0{fill:#000000;}
</style>
<sodipodi:namedview  bordercolor="#666666" borderlayer="true" borderopacity="1.0" id="base" inkscape:bbox-nodes="true" inkscape:current-layer="layer25" inkscape:cx="5.393155" inkscape:cy="14.217276" inkscape:document-units="px" inkscape:guide-bbox="true" inkscape:measure-end="20,12.498" inkscape:measure-start="18.8975,12.498" inkscape:object-paths="true" inkscape:pageopacity="0" inkscape:pageshadow="2" inkscape:showpageshadow="false" inkscape:snap-bbox="true" inkscape:snap-bbox-edge-midpoints="true" inkscape:snap-bbox-midpoints="true" inkscape:snap-center="true" inkscape:snap-global="true" inkscape:snap-intersection-paths="true" inkscape:snap-midpoints="true" inkscape:snap-object-midpoints="true" inkscape:snap-page="true" inkscape:snap-smooth-nodes="true" inkscape:window-height="1027" inkscape:window-maximized="1" inkscape:window-width="1920" inkscape:window-x="-8" inkscape:window-y="-8" inkscape:zoom="16" pagecolor="#505050" showgrid="false" showguides="false" units="px">
	<sodipodi:guide  id="guide4039" inkscape:locked="false" orientation="1,0" position="10,10"></sodipodi:guide>
	<sodipodi:guide  id="guide3935" inkscape:locked="false" orientation="0,1" position="10,10"></sodipodi:guide>
</sodipodi:namedview>
<g id="layer25" inkscape:groupmode="layer" inkscape:label="Content">
	<g id="g860" transform="matrix(0.84331109,-0.84331109,0.84331109,0.84331109,-5.2993351,11.566889)">
		<path id="rect828" inkscape:connector-curvature="0" sodipodi:nodetypes="ccccccccccccccc" class="st0" d="M5.8,0.5L5.8,0.5
			C5.4,0.9,5.4,1.6,5.8,2l0,0c0.6,0.6,1,1.5,1,2.4v3c0,1.2-0.7,2.3-1.7,3l-0.9,0.5c-0.5,0.3-0.6,0.9-0.2,1.3l0.1,0.1
			c0.2,0.2,0.4,0.2,0.6,0.2H10h5.3c0.2,0,0.4-0.1,0.6-0.2l0.1-0.1c0.4-0.4,0.3-1-0.2-1.3l-0.9-0.5c-1.1-0.6-1.7-1.7-1.7-3v-3
			c0-0.9,0.4-1.8,1-2.4l0,0c0.4-0.4,0.4-1.1,0-1.5l0,0C13.9,0.2,13.5,0,13,0l-3,0H7C6.5,0,6.1,0.2,5.8,0.5z"/>
		<path id="path843" inkscape:connector-curvature="0" class="st0" d="M9.2,14.4v3.8c0,0.3,0.1,0.6,0.2,0.8l0.6,1l0.6-1
			c0.1-0.3,0.2-0.5,0.2-0.8v-3.8c0-0.4-0.4-0.8-0.8-0.8l0,0C9.6,13.6,9.2,13.9,9.2,14.4z"/>
	</g>
</g>
</svg>
