<?xml version="1.0" encoding="utf-8"?>
<!-- Generator: Adobe Illustrator 26.0.3, SVG Export Plug-In . SVG Version: 6.00 Build 0)  -->
<svg version="1.1"
	 id="svg8" xmlns:cc="http://creativecommons.org/ns#" xmlns:dc="http://purl.org/dc/elements/1.1/" xmlns:inkscape="http://www.inkscape.org/namespaces/inkscape" xmlns:rdf="http://www.w3.org/1999/02/22-rdf-syntax-ns#" xmlns:sodipodi="http://sodipodi.sourceforge.net/DTD/sodipodi-0.dtd" xmlns:svg="http://www.w3.org/2000/svg"
	 xmlns="http://www.w3.org/2000/svg" xmlns:xlink="http://www.w3.org/1999/xlink" x="0px" y="0px" viewBox="0 0 64 64"
	 style="enable-background:new 0 0 64 64;" xml:space="preserve">
<style type="text/css">
	.st0{fill:#000000;}
</style>
<sodipodi:namedview  bordercolor="#666666" borderlayer="true" borderopacity="1.0" id="base" inkscape:bbox-nodes="true" inkscape:current-layer="layer25" inkscape:cx="2.1378736" inkscape:cy="9.2954155" inkscape:document-units="px" inkscape:guide-bbox="true" inkscape:measure-end="20,12.498" inkscape:measure-start="18.8975,12.498" inkscape:object-paths="true" inkscape:pageopacity="0" inkscape:pageshadow="2" inkscape:showpageshadow="false" inkscape:snap-bbox="true" inkscape:snap-bbox-edge-midpoints="true" inkscape:snap-bbox-midpoints="true" inkscape:snap-center="true" inkscape:snap-global="true" inkscape:snap-intersection-paths="true" inkscape:snap-midpoints="true" inkscape:snap-object-midpoints="true" inkscape:snap-page="true" inkscape:snap-smooth-nodes="true" inkscape:window-height="1027" inkscape:window-maximized="1" inkscape:window-width="1920" inkscape:window-x="-8" inkscape:window-y="-8" inkscape:zoom="24.357491" pagecolor="#505050" showgrid="false" showguides="true" units="px">
	<sodipodi:guide  id="guide4039" inkscape:locked="false" orientation="1,0" position="10,10"></sodipodi:guide>
	<sodipodi:guide  id="guide3935" inkscape:locked="false" orientation="0,1" position="10,10"></sodipodi:guide>
</sodipodi:namedview>
<g id="layer25" inkscape:groupmode="layer" inkscape:label="Content">
	<path id="path3944" class="st0" d="M23.2,1v21.3c0,0.5-0.5,1-1,1H1c-0.6,0-1,0.4-1,1v16.1c0,0.5,0.4,1,1,1h21.2c0.5,0,1,0.4,1,1V63
		c0,0.5,0.5,1,1,1h16c0.5,0,1-0.5,1-1V42.4c0-0.6,0.4-1,1-1H63c0.6,0,1-0.4,1-1V24.3c0-0.6-0.4-1-1-1H42.2c-0.5,0-1-0.5-1-1V1
		c0-0.6-0.4-1-1-1h-16C23.6,0,23.2,0.4,23.2,1z"/>
</g>
</svg>
