<?xml version="1.0" encoding="utf-8"?>
<!-- Generator: Adobe Illustrator 26.0.3, SVG Export Plug-In . SVG Version: 6.00 Build 0)  -->
<svg version="1.1"
	 id="svg8" xmlns:cc="http://creativecommons.org/ns#" xmlns:dc="http://purl.org/dc/elements/1.1/" xmlns:inkscape="http://www.inkscape.org/namespaces/inkscape" xmlns:rdf="http://www.w3.org/1999/02/22-rdf-syntax-ns#" xmlns:sodipodi="http://sodipodi.sourceforge.net/DTD/sodipodi-0.dtd" xmlns:svg="http://www.w3.org/2000/svg"
	 xmlns="http://www.w3.org/2000/svg" xmlns:xlink="http://www.w3.org/1999/xlink" x="0px" y="0px" viewBox="0 0 64 64"
	 style="enable-background:new 0 0 64 64;" xml:space="preserve">
<style type="text/css">
	.st0{fill:#000000;}
</style>
<sodipodi:namedview  bordercolor="#666666" borderlayer="true" borderopacity="1.0" id="base" inkscape:bbox-nodes="true" inkscape:current-layer="layer25" inkscape:cx="-9.0611176" inkscape:cy="9.2135439" inkscape:document-units="px" inkscape:guide-bbox="true" inkscape:measure-end="20,12.498" inkscape:measure-start="18.8975,12.498" inkscape:object-paths="true" inkscape:pageopacity="0" inkscape:pageshadow="2" inkscape:showpageshadow="false" inkscape:snap-bbox="true" inkscape:snap-bbox-edge-midpoints="true" inkscape:snap-bbox-midpoints="true" inkscape:snap-center="true" inkscape:snap-global="true" inkscape:snap-intersection-paths="true" inkscape:snap-midpoints="true" inkscape:snap-object-midpoints="true" inkscape:snap-page="true" inkscape:snap-smooth-nodes="true" inkscape:window-height="1027" inkscape:window-maximized="1" inkscape:window-width="1920" inkscape:window-x="-8" inkscape:window-y="-8" inkscape:zoom="24.357491" pagecolor="#505050" showgrid="false" showguides="true" units="px">
	<sodipodi:guide  id="guide4039" inkscape:locked="false" orientation="1,0" position="10,10"></sodipodi:guide>
	<sodipodi:guide  id="guide3935" inkscape:locked="false" orientation="0,1" position="10,10"></sodipodi:guide>
</sodipodi:namedview>
<path class="st0" d="M2,34c-0.5,0-1.1-0.3-1.5-0.5C0.1,33.1,0,32.5,0,32c0-2.9,0.4-5.7,1.1-8.5c0.7-2.7,1.9-5.3,3.2-7.7
	s3.1-4.5,5.1-6.5s4.1-3.6,6.5-5.1s4.9-2.5,7.7-3.2c2.7-0.6,5.5-1,8.4-1c2.3,0,4.5,0.1,6.7,0.7s4.4,1.2,6.4,2.1s4,2.1,5.9,3.3
	c1.7,1.3,3.5,2.9,5.1,4.5V2c0-0.5,0.1-1.1,0.5-1.5C56.9,0.1,57.5,0,58,0s1.1,0.1,1.5,0.5C59.9,1.1,60,1.5,60,2c0,2.5,0,5.1,0,7.5
	s0,5.1,0,7.5c0,0.4,0,0.7-0.1,1.1c-0.1,0.3-0.1,0.7-0.3,0.9c-0.1,0.1-0.3,0.5-0.5,0.7C58.7,19.9,58.4,20,58,20H42
	c-0.5,0-1.1-0.3-1.5-0.7C40.1,18.9,40,18.4,40,18s0.3-1.1,0.5-1.3c0.4-0.4,0.9-0.7,1.5-0.7h13.1c-1.3-1.9-2.8-3.6-4.5-5.1
	S47,8.1,45.1,7s-4-1.9-6.3-2.4S34.3,4,32,4s-4.3,0.1-6.4,0.7s-4.1,1.2-6,2.1s-3.7,2.1-5.3,3.5c-1.7,1.3-3.2,2.9-4.5,4.5
	c-1.9,2.5-3.3,5.1-4.3,8.1S4,28.9,4,32c0,0.5-0.1,1.1-0.5,1.5C2.9,33.9,2.5,34,2,34z M64,32c0,2.9-0.4,5.7-1.1,8.5
	c-0.7,2.7-1.9,5.3-3.2,7.6c-1.5,2.3-3.1,4.5-5.1,6.5c-1.9,2-4.1,3.6-6.5,5.1s-4.9,2.5-7.6,3.2C37.9,63.6,34.9,64,32,64
	c-2.3,0-4.5-0.3-6.8-0.7c-2.3-0.5-4.4-1.2-6.4-2.1c-2-0.9-4-2.1-5.9-3.5c-1.7-1.3-3.5-2.9-4.9-4.5V62c0,0.5-0.3,1.1-0.5,1.5
	C7.1,63.9,6.5,64,6,64s-1.1-0.3-1.5-0.5C4.1,63.1,4,62.5,4,62c0-2.5,0-5.1,0-7.5s0-5.1,0-7.5c0-0.3,0-0.7,0.1-1.1
	c0.1-0.4,0.1-0.7,0.3-1.1c0.1-0.4,0.3-0.5,0.5-0.7S5.5,44,6,44h16c0.5,0,1.1,0.3,1.3,0.5c0.4,0.4,0.7,0.9,0.7,1.5
	c0,0.5-0.3,1.1-0.7,1.5C22.9,47.9,22.4,48,22,48H8.9c1.3,1.9,2.8,3.6,4.5,5.1s3.5,2.7,5.5,3.9c2,1.1,4.1,1.7,6.3,2.4
	C27.3,60,29.7,60,32,60c2.1,0,4.3-0.3,6.4-0.8c2.1-0.7,4.1-1.2,6-2.3s3.7-2.1,5.3-3.5c1.6-1.3,3.1-2.9,4.5-4.5
	c1.9-2.5,3.3-5.1,4.3-8.1s1.5-5.9,1.5-9.1c0-0.5,0.3-1.1,0.5-1.3c0.4-0.4,0.9-0.5,1.5-0.5s1.1,0.3,1.5,0.7C63.9,30.9,64,31.5,64,32z
	"/>
</svg>
