<?xml version="1.0" encoding="utf-8"?>
<!-- Generator: Adobe Illustrator 26.0.3, SVG Export Plug-In . SVG Version: 6.00 Build 0)  -->
<svg version="1.1"
	 id="svg8" xmlns:cc="http://creativecommons.org/ns#" xmlns:dc="http://purl.org/dc/elements/1.1/" xmlns:inkscape="http://www.inkscape.org/namespaces/inkscape" xmlns:rdf="http://www.w3.org/1999/02/22-rdf-syntax-ns#" xmlns:sodipodi="http://sodipodi.sourceforge.net/DTD/sodipodi-0.dtd" xmlns:svg="http://www.w3.org/2000/svg"
	 xmlns="http://www.w3.org/2000/svg" xmlns:xlink="http://www.w3.org/1999/xlink" x="0px" y="0px" viewBox="0 0 20 20"
	 style="enable-background:new 0 0 20 20;" xml:space="preserve">
<style type="text/css">
	.st0{fill:#000000;}
</style>
<sodipodi:namedview  bordercolor="#666666" borderlayer="true" borderopacity="1.0" id="base" inkscape:bbox-nodes="true" inkscape:current-layer="layer25" inkscape:cx="10.193477" inkscape:cy="2.6868089" inkscape:document-units="px" inkscape:guide-bbox="true" inkscape:measure-end="20,12.498" inkscape:measure-start="18.8975,12.498" inkscape:object-paths="true" inkscape:pageopacity="0" inkscape:pageshadow="2" inkscape:showpageshadow="false" inkscape:snap-bbox="true" inkscape:snap-bbox-edge-midpoints="true" inkscape:snap-bbox-midpoints="true" inkscape:snap-center="true" inkscape:snap-global="true" inkscape:snap-intersection-paths="true" inkscape:snap-midpoints="true" inkscape:snap-object-midpoints="true" inkscape:snap-page="true" inkscape:snap-smooth-nodes="true" inkscape:window-height="1027" inkscape:window-maximized="1" inkscape:window-width="1920" inkscape:window-x="-8" inkscape:window-y="-8" inkscape:zoom="24.35749" pagecolor="#505050" showgrid="false" showguides="true" units="px">
	<sodipodi:guide  id="guide4039" inkscape:locked="false" orientation="1,0" position="10,10"></sodipodi:guide>
	<sodipodi:guide  id="guide3935" inkscape:locked="false" orientation="0,1" position="10,10"></sodipodi:guide>
</sodipodi:namedview>
<path class="st0" d="M3.8,11.2c0-0.2,0.1-0.3,0.2-0.4c0.1-0.1,0.3-0.2,0.4-0.2s0.3,0.1,0.4,0.2l4.6,4.6V0.6c0-0.2,0.1-0.3,0.2-0.4
	S9.8,0,10,0s0.3,0.1,0.4,0.2s0.2,0.3,0.2,0.4v14.7l4.6-4.6c0.1-0.1,0.3-0.2,0.4-0.2s0.3,0.1,0.4,0.2c0.1,0.1,0.2,0.3,0.2,0.4
	s-0.1,0.3-0.2,0.4l-5.6,5.6c-0.1,0.1-0.1,0.1-0.2,0.2s-0.2,0.1-0.3,0.1s-0.2,0-0.3-0.1s-0.1-0.1-0.2-0.2l-5.6-5.6
	C3.8,11.6,3.8,11.4,3.8,11.2z M16.2,18.8c0.2,0,0.3,0.1,0.4,0.2s0.2,0.3,0.2,0.4s-0.1,0.3-0.2,0.4S16.4,20,16.2,20H3.8
	c-0.2,0-0.3-0.1-0.4-0.2s-0.2-0.3-0.2-0.4s0.1-0.3,0.2-0.4s0.3-0.2,0.4-0.2H16.2z"/>
</svg>
