<?xml version="1.0" encoding="utf-8"?>
<!-- Generator: Adobe Illustrator 26.0.3, SVG Export Plug-In . SVG Version: 6.00 Build 0)  -->
<svg version="1.1"
	 id="svg8" xmlns:cc="http://creativecommons.org/ns#" xmlns:dc="http://purl.org/dc/elements/1.1/" xmlns:inkscape="http://www.inkscape.org/namespaces/inkscape" xmlns:rdf="http://www.w3.org/1999/02/22-rdf-syntax-ns#" xmlns:sodipodi="http://sodipodi.sourceforge.net/DTD/sodipodi-0.dtd" xmlns:svg="http://www.w3.org/2000/svg"
	 xmlns="http://www.w3.org/2000/svg" xmlns:xlink="http://www.w3.org/1999/xlink" x="0px" y="0px" viewBox="0 0 64 64"
	 style="enable-background:new 0 0 64 64;" xml:space="preserve">
<style type="text/css">
	.st0{fill:#000000;}
</style>
<sodipodi:namedview  bordercolor="#666666" borderlayer="true" borderopacity="1.0" id="base" inkscape:bbox-nodes="true" inkscape:current-layer="layer25" inkscape:cx="-9.5131344" inkscape:cy="7.0312982" inkscape:document-units="px" inkscape:guide-bbox="true" inkscape:measure-end="20,12.498" inkscape:measure-start="18.8975,12.498" inkscape:object-paths="true" inkscape:pageopacity="0" inkscape:pageshadow="2" inkscape:showpageshadow="false" inkscape:snap-bbox="true" inkscape:snap-bbox-edge-midpoints="true" inkscape:snap-bbox-midpoints="true" inkscape:snap-center="true" inkscape:snap-global="true" inkscape:snap-intersection-paths="true" inkscape:snap-midpoints="true" inkscape:snap-object-midpoints="true" inkscape:snap-page="true" inkscape:snap-smooth-nodes="true" inkscape:window-height="1027" inkscape:window-maximized="1" inkscape:window-width="1920" inkscape:window-x="-8" inkscape:window-y="-8" inkscape:zoom="29.64796" pagecolor="#505050" showgrid="false" showguides="true" units="px">
	<sodipodi:guide  id="guide4039" inkscape:locked="false" orientation="1,0" position="10,10"></sodipodi:guide>
	<sodipodi:guide  id="guide3935" inkscape:locked="false" orientation="0,1" position="10,10"></sodipodi:guide>
</sodipodi:namedview>
<path class="st0" d="M0.6,30.6C1,30.2,1.5,30,2,30s1,0.2,1.4,0.6S4,31.5,4,32c0,2.5,0.3,5,0.9,7.3s1.6,4.6,2.9,6.8s2.8,4.1,4.5,5.8
	s3.6,3.2,5.7,4.4s4.3,2.1,6.7,2.8s4.8,1,7.3,1c2.6,0,5.1-0.3,7.5-1s4.6-1.6,6.7-2.8s4-2.7,5.7-4.4s3.2-3.6,4.4-5.7s2.1-4.3,2.8-6.7
	s1-4.9,1-7.5s-0.3-5.1-1-7.5s-1.6-4.6-2.8-6.7s-2.7-4-4.4-5.7S48.2,9,46.1,7.8C44,6.6,41.8,5.6,39.4,5c-2.4-0.7-4.9-1-7.5-1
	c-2.3,0-4.5,0.3-6.7,0.8S21,6.2,19.1,7.2s-3.8,2.3-5.5,3.8s-3.2,3.2-4.5,5h13c0.5,0,1,0.2,1.4,0.6S24,17.5,24,18s-0.2,1-0.6,1.4
	S22.5,20,22,20H6c-0.4,0-0.8-0.1-1.1-0.3S4.5,19.3,4.3,19S4.1,18.5,4,18.1s0-0.7,0-1c0-2.5,0-5,0-7.5s0-5,0-7.5c0-0.5,0.2-1,0.6-1.4
	S5.5,0,6,0s1,0.2,1.4,0.6S8,1.5,8,2v8.8c1.5-1.7,3.2-3.2,5-4.6s3.8-2.5,5.8-3.4s4.2-1.6,6.4-2.1S29.7,0,32,0c3,0,5.8,0.4,8.5,1.1
	c2.7,0.8,5.3,1.8,7.6,3.2s4.5,3.1,6.5,5s3.6,4.1,5,6.5s2.5,4.9,3.2,7.6S64,29,64,32s-0.4,5.8-1.1,8.5s-1.8,5.3-3.2,7.7s-3,4.5-5,6.5
	s-4.1,3.6-6.5,5s-4.9,2.5-7.7,3.2C37.8,63.6,35,64,32,64s-5.8-0.4-8.5-1.1s-5.3-1.8-7.6-3.2s-4.5-3.1-6.5-5s-3.6-4.1-5-6.5
	s-2.5-4.9-3.2-7.6S0,35,0,32C0,31.5,0.2,31,0.6,30.6z"/>
</svg>
