<?xml version="1.0" encoding="utf-8"?>
<!-- Generator: Adobe Illustrator 26.0.3, SVG Export Plug-In . SVG Version: 6.00 Build 0)  -->
<svg version="1.1"
	 id="svg8" xmlns:cc="http://creativecommons.org/ns#" xmlns:dc="http://purl.org/dc/elements/1.1/" xmlns:inkscape="http://www.inkscape.org/namespaces/inkscape" xmlns:rdf="http://www.w3.org/1999/02/22-rdf-syntax-ns#" xmlns:sodipodi="http://sodipodi.sourceforge.net/DTD/sodipodi-0.dtd" xmlns:svg="http://www.w3.org/2000/svg"
	 xmlns="http://www.w3.org/2000/svg" xmlns:xlink="http://www.w3.org/1999/xlink" x="0px" y="0px" viewBox="0 0 64 64"
	 style="enable-background:new 0 0 64 64;" xml:space="preserve">
<style type="text/css">
	.st0{fill:none;stroke:#ABB2BF;stroke-width:3;stroke-miterlimit:10;}
</style>
<sodipodi:namedview  bordercolor="#666666" borderlayer="true" borderopacity="1.0" id="base" inkscape:bbox-nodes="true" inkscape:current-layer="layer25" inkscape:cx="10" inkscape:cy="10" inkscape:document-units="px" inkscape:guide-bbox="true" inkscape:measure-end="20,12.498" inkscape:measure-start="18.8975,12.498" inkscape:object-paths="true" inkscape:pageopacity="0" inkscape:pageshadow="2" inkscape:showpageshadow="false" inkscape:snap-bbox="true" inkscape:snap-bbox-edge-midpoints="true" inkscape:snap-bbox-midpoints="true" inkscape:snap-center="true" inkscape:snap-global="true" inkscape:snap-intersection-paths="true" inkscape:snap-midpoints="true" inkscape:snap-object-midpoints="true" inkscape:snap-page="true" inkscape:snap-smooth-nodes="true" inkscape:window-height="1027" inkscape:window-maximized="1" inkscape:window-width="1920" inkscape:window-x="-8" inkscape:window-y="-8" inkscape:zoom="52.111111" pagecolor="#505050" showgrid="false" showguides="true" units="px">
	<sodipodi:guide  id="guide4039" inkscape:locked="false" orientation="1,0" position="10,10"></sodipodi:guide>
	<sodipodi:guide  id="guide3935" inkscape:locked="false" orientation="0,1" position="10,10"></sodipodi:guide>
</sodipodi:namedview>
<path class="st0" d="M4.8,22.9c0-2.1,0.4-4,1.1-5.8c0.7-1.8,1.8-3.3,3.1-4.6s2.8-2.4,4.6-3.3c1.8-0.8,3.6-1.1,5.7-1.1
	s3.9,0.4,5.7,1.1c1.8,0.8,3.4,1.8,4.7,3.3c0.4,0.4,0.7,0.7,1,1c0.4,0.4,0.7,0.7,1,1c0.4-0.4,0.7-0.7,1-1c0.4-0.4,0.7-0.7,1-1
	c1.5-1.2,3-2.4,4.8-3.1c1.8-0.7,3.6-1.1,5.6-1.1c2.1,0,4,0.5,5.8,1.1c1.8,0.8,3.4,1.9,4.6,3.3s2.4,2.9,3.1,4.7
	c0.8,1.8,1.2,3.8,1.2,5.8c0,1.9-0.4,3.9-1.1,5.7c-0.8,1.8-1.8,3.4-3.1,4.8L33.7,55.1c-0.5,0.5-1,0.7-1.6,0.7c-0.6,0-1.1-0.2-1.6-0.7
	L9.2,33.5c-1.3-1.3-2.5-2.9-3.1-4.8C5.2,26.8,4.8,25,4.8,22.9z"/>
</svg>
