<?xml version="1.0" encoding="utf-8"?>
<!-- Generator: Adobe Illustrator 26.0.3, SVG Export Plug-In . SVG Version: 6.00 Build 0)  -->
<svg version="1.1" id="Ebene_1" xmlns="http://www.w3.org/2000/svg" xmlns:xlink="http://www.w3.org/1999/xlink" x="0px" y="0px"
	 viewBox="0 0 64 64" style="enable-background:new 0 0 64 64;" xml:space="preserve">
<style type="text/css">
	.st0{fill:none;stroke:#ABB2BF;stroke-width:3;stroke-miterlimit:10;}
	.st1{fill:none;stroke:#ABB2BF;stroke-width:3;stroke-linecap:round;stroke-miterlimit:10;}
</style>
<path class="st0" d="M12.6,13.4h38.9c3.9,0,7.1,3.2,7.1,7.1v23c0,3.9-3.2,7.1-7.1,7.1H12.6c-3.9,0-7.1-3.2-7.1-7.1v-23
	C5.5,16.6,8.7,13.4,12.6,13.4z"/>
<path class="st1" d="M24.5,39.6l-11.9-6.5c-0.3-0.2-0.4-0.4-0.4-0.8v-0.4c0-0.4,0.2-0.6,0.4-0.8l11.9-6.6"/>
<line class="st1" x1="29" y1="41.7" x2="35" y2="22.3"/>
<path class="st1" d="M41.3,24.4L53.2,31c0.3,0.2,0.4,0.4,0.4,0.8v0.4c0,0.4-0.2,0.6-0.4,0.8l-11.9,6.5"/>
</svg>
