<?xml version="1.0" encoding="utf-8"?>
<!-- Generator: Adobe Illustrator 26.0.3, SVG Export Plug-In . SVG Version: 6.00 Build 0)  -->
<svg version="1.1" id="Ebene_1" xmlns="http://www.w3.org/2000/svg" xmlns:xlink="http://www.w3.org/1999/xlink" x="0px" y="0px"
	 viewBox="0 0 64 64" style="enable-background:new 0 0 64 64;" xml:space="preserve">
<style type="text/css">
	.st0{fill:#ABB2BF;}
</style>
<path class="st0" d="M57.9,38.9c-1.3-2.2-4.2-3.2-5.6-5.3c-2.9-5.4,7.9-6.2,5.8-11.5c-1.5-3.2-3.2-8.3-7-9c-0.1,0-0.2,0-0.2,0
	c-3.2,0.1-6.4,3.8-9.4,1.4c-2.3-2.3-0.9-6.5-2.9-8.9c-0.1-0.1-0.2-0.2-0.3-0.3c-3.2-1.9-9.4-1.8-12.6,0.1c-1.3,0.9-1.5,5.8-2,7.3
	c-2.1,7.1-9.6-2.7-13.3,1.6C8.2,17.5,3.1,23,7.3,26.5c13.5,9-5.6,8.3-0.8,17c6.7,16.3,12.7-1,17.1,7.7c0,0.1,0.1,0.2,0.1,0.2
	c0.5,2.2,0.3,4.9,1.6,6.8c0.1,0.1,0.2,0.2,0.3,0.3c3.2,1.9,9.2,1.8,12.4,0.1c0.1-0.1,0.2-0.2,0.3-0.3c1.6-2.2,1-5.5,2.2-8
	c4.1-6,10.2,6.2,14.7-3.3C56.7,44.7,59.3,41.7,57.9,38.9z M54.8,40.7c-0.9,2.2-2,4.2-3.4,6c-0.3,0.4-0.9,0.5-1.3,0.3
	c-8.6-4-13.2-1.2-14.1,8.1c0,0.5-0.4,1-1,1c-2.1,0.2-4.2,0.2-6.2,0c-0.4-0.1-0.9-0.4-0.9-0.9c-0.5-3.2-0.9-7.7-4.1-9.1
	c-2.9-2-6.9,0-10,1.1c-0.4,0.2-1,0-1.2-0.3c-1.3-1.6-2.3-3.5-3.1-5.5c-0.2-0.4,0-1,0.3-1.2c2.5-2.1,6.3-4.6,5.9-8.1
	c0.3-3.5-3.4-6-5.9-8.1c-0.3-0.3-0.5-0.8-0.3-1.2c0.8-2,1.9-3.7,3.2-5.4c0.3-0.4,0.9-0.5,1.3-0.3c9,4,13,1.5,14.1-8.1
	c0.1-0.5,0.4-0.9,1-1c2.1-0.2,4.2-0.2,6.2,0c0.4,0.1,0.9,0.4,0.9,0.9c0.5,3.2,0.9,7.7,4.1,9.1c2.9,2,6.9,0,10-1.1
	c0.4-0.2,1,0,1.2,0.3c1.3,1.6,2.3,3.5,3.1,5.5c0.2,0.4,0,1-0.3,1.2C51.8,26,48,28.5,48.4,32C47.9,35.8,52.4,38.5,54.8,40.7
	L54.8,40.7z"/>
<path class="st0" d="M32,23.2c-4.8,0-8.8,4-8.8,8.8s4,8.8,8.8,8.8c4.8,0,8.8-4,8.8-8.8S36.8,23.2,32,23.2z M32,37.5
	c-3.1,0-5.5-2.4-5.5-5.5s2.4-5.5,5.5-5.5s5.5,2.4,5.5,5.5S35.1,37.5,32,37.5z"/>
</svg>
