<?xml version="1.0" encoding="utf-8"?>
<!-- Generator: Adobe Illustrator 26.0.3, SVG Export Plug-In . SVG Version: 6.00 Build 0)  -->
<svg version="1.1"
	 id="svg8" xmlns:cc="http://creativecommons.org/ns#" xmlns:dc="http://purl.org/dc/elements/1.1/" xmlns:inkscape="http://www.inkscape.org/namespaces/inkscape" xmlns:rdf="http://www.w3.org/1999/02/22-rdf-syntax-ns#" xmlns:sodipodi="http://sodipodi.sourceforge.net/DTD/sodipodi-0.dtd" xmlns:svg="http://www.w3.org/2000/svg"
	 xmlns="http://www.w3.org/2000/svg" xmlns:xlink="http://www.w3.org/1999/xlink" x="0px" y="0px" viewBox="0 0 64 64"
	 style="enable-background:new 0 0 64 64;" xml:space="preserve">
<style type="text/css">
	.st0{fill:#ABB2BF;}
</style>
<sodipodi:namedview  bordercolor="#666666" borderlayer="true" borderopacity="1.0" id="base" inkscape:bbox-nodes="true" inkscape:current-layer="layer25" inkscape:cx="-6.7275792" inkscape:cy="1.8950951" inkscape:document-units="px" inkscape:guide-bbox="true" inkscape:measure-end="20,12.498" inkscape:measure-start="18.8975,12.498" inkscape:object-paths="true" inkscape:pageopacity="0" inkscape:pageshadow="2" inkscape:showpageshadow="false" inkscape:snap-bbox="true" inkscape:snap-bbox-edge-midpoints="true" inkscape:snap-bbox-midpoints="true" inkscape:snap-center="true" inkscape:snap-global="true" inkscape:snap-intersection-paths="true" inkscape:snap-midpoints="true" inkscape:snap-object-midpoints="true" inkscape:snap-page="true" inkscape:snap-smooth-nodes="true" inkscape:window-height="1027" inkscape:window-maximized="1" inkscape:window-width="1920" inkscape:window-x="-8" inkscape:window-y="-8" inkscape:zoom="17.223346" pagecolor="#505050" showgrid="false" showguides="true" units="px">
	<sodipodi:guide  id="guide4039" inkscape:locked="false" orientation="1,0" position="10,10"></sodipodi:guide>
	<sodipodi:guide  id="guide3935" inkscape:locked="false" orientation="0,1" position="10,10"></sodipodi:guide>
</sodipodi:namedview>
<path class="st0" d="M20,14.8V54c0,0.5-0.2,1-0.6,1.4S18.5,56,18,56s-1-0.2-1.4-0.6S16,54.5,16,54V14.8L3.4,27.4C3,27.8,2.5,28,2,28
	s-1-0.2-1.4-0.6S0,26.5,0,26s0.2-1,0.6-1.4L16.5,8.7c0.2-0.2,0.5-0.4,0.7-0.5S17.7,8,18,8s0.6,0.1,0.8,0.2s0.5,0.3,0.7,0.5
	l15.9,15.9C35.8,25,36,25.5,36,26s-0.2,1-0.6,1.4S34.5,28,34,28s-1-0.2-1.4-0.6L20,14.8z M64,38c0,0.5-0.2,1-0.6,1.4L47.5,55.3
	c-0.2,0.2-0.5,0.4-0.7,0.5S46.3,56,46,56s-0.6-0.1-0.8-0.2s-0.4-0.3-0.7-0.5L28.6,39.4C28.2,39,28,38.5,28,38s0.2-1,0.6-1.4
	S29.5,36,30,36s1,0.2,1.4,0.6L44,49.2V10c0-0.5,0.2-1,0.6-1.4S45.5,8,46,8s1,0.2,1.4,0.6S48,9.5,48,10v39.2l12.6-12.6
	C61,36.2,61.5,36,62,36s1,0.2,1.4,0.6S64,37.5,64,38z"/>
</svg>
